<svg width="241" height="242" viewBox="0 0 241 242" fill="none" xmlns="http://www.w3.org/2000/svg">
<path d="M50.4323 39.809C53.0323 38.209 55.2323 36.509 57.7323 35.409C63.0323 33.209 67.5323 33.809 71.9323 38.209C98.1323 64.709 178.532 145.009 204.932 171.409C209.432 175.909 210.132 180.709 207.132 186.409C206.032 188.409 204.732 190.309 203.332 192.509C206.732 195.109 210.232 197.909 213.632 200.709C221.132 206.709 228.432 212.809 234.532 220.209C236.732 222.909 238.532 226.109 240.032 229.309C241.632 232.509 240.932 235.709 238.432 238.309C235.732 241.009 232.432 241.909 228.932 240.209C226.032 238.709 223.032 237.009 220.532 234.909C211.932 227.509 204.832 218.809 197.832 210.009C196.032 207.709 194.132 205.609 192.732 203.809C188.932 205.509 185.632 207.409 182.132 208.509C178.332 209.609 174.932 208.509 172.032 205.509C145.232 178.709 64.4323 97.909 37.6323 71.209C32.6323 66.209 34.0323 59.709 36.6323 55.209C37.5323 53.709 38.7323 52.309 39.9323 50.709C37.9323 49.009 35.9323 47.209 33.9323 45.609C24.4323 38.009 14.8323 30.509 6.83231 21.309C4.63231 18.709 2.73232 15.809 1.13232 12.809C-0.867675 8.90903 -0.167694 5.80903 2.83231 2.80903C5.53231 0.109028 8.93232 -0.590972 12.6323 1.30903C15.7323 2.90903 18.8323 4.70903 21.4323 7.00903C29.6323 14.009 36.4323 22.309 42.9323 30.809C45.3323 33.909 47.9323 36.909 50.4323 39.809Z" fill="white"/>
<path d="M35.6323 172.009C32.7323 174.909 31.5323 178.309 32.7323 182.109C33.8323 185.609 35.7323 188.909 37.3323 192.709C35.6323 194.109 33.4323 196.009 31.2323 197.809C22.3323 204.809 13.7323 211.909 6.33228 220.509C4.13228 223.009 2.4323 226.009 1.0323 228.909C-0.667704 232.409 0.132284 235.709 2.83228 238.409C5.43228 240.909 8.73229 241.609 11.9323 240.009C15.1323 238.509 18.3323 236.709 21.0323 234.509C28.4323 228.409 34.5323 221.109 40.5323 213.609C43.2323 210.209 46.0323 206.709 48.7323 203.309C50.9323 204.709 52.8323 206.009 54.8323 207.109C60.4323 210.109 65.3323 209.309 69.8323 204.909C79.5323 195.209 96.6323 178.009 115.632 159.009L82.2323 125.509C62.9323 144.809 45.6323 162.109 35.6323 172.009Z" fill="white"/>
<path d="M238.332 2.80903C235.432 -0.190969 232.332 -0.890959 228.432 1.20904C225.432 2.70904 222.432 4.60903 219.932 6.80903C210.732 14.809 203.232 24.409 195.632 33.909C193.932 35.909 192.232 37.909 190.532 39.909C188.832 38.709 187.532 37.509 185.932 36.609C181.532 34.009 174.932 32.609 170.032 37.609C160.432 47.209 144.032 63.709 125.632 82.109L159.032 115.609C177.232 97.409 193.532 81.209 202.932 71.909C207.332 67.509 208.032 63.009 205.732 57.709C204.732 55.209 203.032 53.009 201.432 50.409C204.332 47.909 207.232 45.309 210.432 42.909C218.932 36.409 227.232 29.609 234.232 21.409C236.432 18.809 238.232 15.709 239.832 12.609C241.732 8.90903 241.032 5.50903 238.332 2.80903Z" fill="white"/>
<path d="M87.0323 120.709L120.532 154.209C131.632 143.009 143.232 131.509 154.232 120.409L120.732 87.009C109.732 98.009 98.1323 109.609 87.0323 120.709Z" fill="white"/>
</svg>
